<mxfile host="app.diagrams.net" modified="2023-04-13T09:46:48.108Z" agent="Mozilla/5.0 (Windows NT 10.0; Win64; x64) AppleWebKit/537.36 (KHTML, like Gecko) Chrome/111.0.0.0 Safari/537.36" etag="nGtVWqSOVLJrehw7phfU" version="21.1.7" type="github">
  <diagram id="txx3bHHGOBFFJghas2Wa" name="Страница 1">
    <mxGraphModel dx="1434" dy="1623" grid="1" gridSize="10" guides="1" tooltips="1" connect="1" arrows="1" fold="1" page="1" pageScale="1" pageWidth="1169" pageHeight="827" math="0" shadow="0">
      <root>
        <mxCell id="0" />
        <mxCell id="1" parent="0" />
        <mxCell id="uhG8UHSYETovZm9aPu19-5" value="" style="edgeStyle=orthogonalEdgeStyle;rounded=0;orthogonalLoop=1;jettySize=auto;html=1;fontColor=#66FF66;" parent="1" source="AzMbnHq6-pzzuQCgAMzn-20" target="uhG8UHSYETovZm9aPu19-4" edge="1">
          <mxGeometry relative="1" as="geometry" />
        </mxCell>
        <mxCell id="AzMbnHq6-pzzuQCgAMzn-20" value="Начало" style="rounded=1;whiteSpace=wrap;html=1;arcSize=32;" parent="1" vertex="1">
          <mxGeometry x="465" y="29" width="120" height="60" as="geometry" />
        </mxCell>
        <mxCell id="AzMbnHq6-pzzuQCgAMzn-21" value="Конец" style="rounded=1;whiteSpace=wrap;html=1;arcSize=32;" parent="1" vertex="1">
          <mxGeometry x="450" y="739" width="120" height="60" as="geometry" />
        </mxCell>
        <mxCell id="uhG8UHSYETovZm9aPu19-8" value="составной (Multy)" style="edgeStyle=orthogonalEdgeStyle;rounded=0;orthogonalLoop=1;jettySize=auto;html=1;fontColor=#0000FF;entryX=0.5;entryY=0;entryDx=0;entryDy=0;fontSize=12;" parent="1" source="uhG8UHSYETovZm9aPu19-4" target="jhGRHMNOVWTFbntyYFQe-3" edge="1">
          <mxGeometry x="-0.4596" y="1" relative="1" as="geometry">
            <mxPoint x="165" y="249" as="targetPoint" />
            <mxPoint as="offset" />
          </mxGeometry>
        </mxCell>
        <mxCell id="uhG8UHSYETovZm9aPu19-10" value="только ссылочный" style="edgeStyle=orthogonalEdgeStyle;rounded=0;orthogonalLoop=1;jettySize=auto;html=1;fontColor=#0000FF;entryX=0.5;entryY=0;entryDx=0;entryDy=0;fontSize=12;" parent="1" source="uhG8UHSYETovZm9aPu19-4" target="uhG8UHSYETovZm9aPu19-48" edge="1">
          <mxGeometry x="-0.6199" relative="1" as="geometry">
            <mxPoint x="739.5" y="189" as="targetPoint" />
            <mxPoint as="offset" />
          </mxGeometry>
        </mxCell>
        <mxCell id="uhG8UHSYETovZm9aPu19-4" value="Структура типа данных реквизита" style="rhombus;whiteSpace=wrap;html=1;rounded=0;arcSize=0;fontStyle=0;verticalAlign=middle;horizontal=1;" parent="1" vertex="1">
          <mxGeometry x="413.5" y="149" width="223" height="71" as="geometry" />
        </mxCell>
        <mxCell id="uhG8UHSYETovZm9aPu19-6" value="&lt;h1&gt;&lt;font style=&quot;font-size: 18px;&quot; color=&quot;#0000ff&quot;&gt;MetaType&amp;nbsp;&lt;/font&gt;&lt;/h1&gt;&lt;p&gt;&lt;font color=&quot;#4d4d4d&quot;&gt;Можно указать типом:&lt;/font&gt;&lt;/p&gt;&lt;p&gt;&lt;/p&gt;&lt;ul&gt;&lt;li&gt;&lt;font color=&quot;#4d4d4d&quot;&gt;Type&lt;/font&gt;&lt;/li&gt;&lt;li&gt;&lt;font color=&quot;#4d4d4d&quot;&gt;string Meta Type and Name (MetaTN)*&lt;/font&gt;&lt;/li&gt;&lt;/ul&gt;&lt;font color=&quot;#4d4d4d&quot;&gt;*Это случай, когда Meta зарегистрирован в БД, но нет модели.в коде&lt;br&gt;&lt;/font&gt;&lt;p&gt;&lt;/p&gt;" style="text;html=1;strokeColor=none;fillColor=none;spacing=5;spacingTop=-20;whiteSpace=wrap;overflow=hidden;rounded=0;fontColor=#66FF66;" parent="1" vertex="1">
          <mxGeometry x="17" width="410" height="140" as="geometry" />
        </mxCell>
        <mxCell id="jhGRHMNOVWTFbntyYFQe-16" value="нет" style="edgeStyle=orthogonalEdgeStyle;rounded=0;orthogonalLoop=1;jettySize=auto;html=1;fontSize=12;fontColor=#0000FF;" parent="1" source="uhG8UHSYETovZm9aPu19-48" target="jhGRHMNOVWTFbntyYFQe-15" edge="1">
          <mxGeometry relative="1" as="geometry" />
        </mxCell>
        <mxCell id="jhGRHMNOVWTFbntyYFQe-18" value="есть" style="edgeStyle=orthogonalEdgeStyle;rounded=0;orthogonalLoop=1;jettySize=auto;html=1;fontSize=12;fontColor=#0000FF;" parent="1" source="uhG8UHSYETovZm9aPu19-48" target="jhGRHMNOVWTFbntyYFQe-17" edge="1">
          <mxGeometry relative="1" as="geometry" />
        </mxCell>
        <mxCell id="uhG8UHSYETovZm9aPu19-48" value="&lt;font&gt;Наличие атрибута RefMeta&lt;/font&gt;" style="rhombus;whiteSpace=wrap;html=1;rounded=0;fontColor=#000000;fillColor=none;" parent="1" vertex="1">
          <mxGeometry x="890" y="240" width="240" height="80" as="geometry" />
        </mxCell>
        <mxCell id="uhG8UHSYETovZm9aPu19-1" value="RefMeta" style="text;html=1;strokeColor=#d6b656;fillColor=#000000;align=center;verticalAlign=middle;whiteSpace=wrap;rounded=0;fontColor=#66FF66;" parent="1" vertex="1">
          <mxGeometry x="210" y="155" width="60" height="30" as="geometry" />
        </mxCell>
        <mxCell id="jhGRHMNOVWTFbntyYFQe-1" value="Обязательно" style="text;html=1;strokeColor=none;fillColor=none;align=center;verticalAlign=middle;whiteSpace=wrap;rounded=0;fontSize=10;labelBorderColor=none;fontColor=#FF0000;fontStyle=1" parent="1" vertex="1">
          <mxGeometry x="132" y="160" width="78" height="20" as="geometry" />
        </mxCell>
        <mxCell id="jhGRHMNOVWTFbntyYFQe-2" style="edgeStyle=orthogonalEdgeStyle;rounded=0;orthogonalLoop=1;jettySize=auto;html=1;exitX=0.5;exitY=1;exitDx=0;exitDy=0;" parent="1" source="jhGRHMNOVWTFbntyYFQe-1" target="jhGRHMNOVWTFbntyYFQe-1" edge="1">
          <mxGeometry relative="1" as="geometry" />
        </mxCell>
        <mxCell id="jhGRHMNOVWTFbntyYFQe-6" value="" style="edgeStyle=orthogonalEdgeStyle;rounded=0;orthogonalLoop=1;jettySize=auto;html=1;" parent="1" source="jhGRHMNOVWTFbntyYFQe-3" target="jhGRHMNOVWTFbntyYFQe-5" edge="1">
          <mxGeometry relative="1" as="geometry" />
        </mxCell>
        <mxCell id="jhGRHMNOVWTFbntyYFQe-3" value="Тип данных свойства" style="rhombus;whiteSpace=wrap;html=1;rounded=0;arcSize=0;fontStyle=0;verticalAlign=middle;horizontal=1;" parent="1" vertex="1">
          <mxGeometry x="60" y="240" width="195" height="80" as="geometry" />
        </mxCell>
        <mxCell id="jhGRHMNOVWTFbntyYFQe-8" value="" style="edgeStyle=orthogonalEdgeStyle;rounded=0;orthogonalLoop=1;jettySize=auto;html=1;" parent="1" source="jhGRHMNOVWTFbntyYFQe-5" target="jhGRHMNOVWTFbntyYFQe-7" edge="1">
          <mxGeometry relative="1" as="geometry" />
        </mxCell>
        <mxCell id="jhGRHMNOVWTFbntyYFQe-10" value="" style="edgeStyle=orthogonalEdgeStyle;rounded=0;orthogonalLoop=1;jettySize=auto;html=1;" parent="1" source="jhGRHMNOVWTFbntyYFQe-5" target="jhGRHMNOVWTFbntyYFQe-9" edge="1">
          <mxGeometry relative="1" as="geometry" />
        </mxCell>
        <mxCell id="jhGRHMNOVWTFbntyYFQe-5" value="string" style="rhombus;whiteSpace=wrap;html=1;rounded=0;arcSize=0;fontStyle=0;verticalAlign=middle;horizontal=1;" parent="1" vertex="1">
          <mxGeometry x="60" y="360" width="195" height="80" as="geometry" />
        </mxCell>
        <mxCell id="jhGRHMNOVWTFbntyYFQe-12" value="" style="edgeStyle=orthogonalEdgeStyle;rounded=0;orthogonalLoop=1;jettySize=auto;html=1;" parent="1" source="jhGRHMNOVWTFbntyYFQe-7" target="jhGRHMNOVWTFbntyYFQe-11" edge="1">
          <mxGeometry relative="1" as="geometry" />
        </mxCell>
        <mxCell id="jhGRHMNOVWTFbntyYFQe-7" value="object" style="rhombus;whiteSpace=wrap;html=1;rounded=0;arcSize=0;fontStyle=0;verticalAlign=middle;horizontal=1;" parent="1" vertex="1">
          <mxGeometry x="60" y="560" width="195" height="80" as="geometry" />
        </mxCell>
        <mxCell id="jhGRHMNOVWTFbntyYFQe-13" style="edgeStyle=orthogonalEdgeStyle;rounded=0;orthogonalLoop=1;jettySize=auto;html=1;exitX=1;exitY=0.5;exitDx=0;exitDy=0;entryX=0.5;entryY=0;entryDx=0;entryDy=0;" parent="1" source="jhGRHMNOVWTFbntyYFQe-9" target="AzMbnHq6-pzzuQCgAMzn-21" edge="1">
          <mxGeometry relative="1" as="geometry" />
        </mxCell>
        <mxCell id="jhGRHMNOVWTFbntyYFQe-9" value="Присвоение UUID:&lt;br&gt;&lt;ul&gt;&lt;li&gt;инициализацией свойства&lt;/li&gt;&lt;li&gt;из DataSet как простое поле&lt;/li&gt;&lt;li&gt;в обработчике Routine&lt;/li&gt;&lt;/ul&gt;" style="whiteSpace=wrap;html=1;rounded=0;arcSize=0;fontStyle=0;align=left;fillColor=#fff2cc;strokeColor=#d6b656;fontColor=#4C0099;" parent="1" vertex="1">
          <mxGeometry x="280" y="350" width="203" height="100" as="geometry" />
        </mxCell>
        <mxCell id="jhGRHMNOVWTFbntyYFQe-14" style="edgeStyle=orthogonalEdgeStyle;rounded=0;orthogonalLoop=1;jettySize=auto;html=1;exitX=1;exitY=0.5;exitDx=0;exitDy=0;" parent="1" source="jhGRHMNOVWTFbntyYFQe-11" edge="1">
          <mxGeometry relative="1" as="geometry">
            <mxPoint x="510" y="740" as="targetPoint" />
          </mxGeometry>
        </mxCell>
        <mxCell id="jhGRHMNOVWTFbntyYFQe-11" value="&lt;font color=&quot;#4c0099&quot;&gt;Создание IRefInst:&lt;br&gt;&lt;ul&gt;&lt;li&gt;автоматически&lt;/li&gt;&lt;li&gt;&lt;font color=&quot;#4c0099&quot;&gt;в обработчике Routine&lt;/font&gt;&lt;/li&gt;&lt;/ul&gt;&lt;/font&gt;" style="whiteSpace=wrap;html=1;rounded=0;arcSize=0;fontStyle=0;align=left;fillColor=#fff2cc;strokeColor=#d6b656;" parent="1" vertex="1">
          <mxGeometry x="280" y="560" width="200" height="80" as="geometry" />
        </mxCell>
        <mxCell id="jhGRHMNOVWTFbntyYFQe-19" style="edgeStyle=orthogonalEdgeStyle;rounded=0;orthogonalLoop=1;jettySize=auto;html=1;exitX=0.5;exitY=1;exitDx=0;exitDy=0;" parent="1" source="jhGRHMNOVWTFbntyYFQe-15" edge="1">
          <mxGeometry relative="1" as="geometry">
            <mxPoint x="510" y="740" as="targetPoint" />
            <Array as="points">
              <mxPoint x="690" y="530" />
              <mxPoint x="510" y="530" />
            </Array>
          </mxGeometry>
        </mxCell>
        <mxCell id="jhGRHMNOVWTFbntyYFQe-15" value="Создание IRefInst:&lt;br&gt;&lt;ul&gt;&lt;li&gt;Инициализацией свойства&lt;/li&gt;&lt;li&gt;в обработчике Routine&lt;/li&gt;&lt;/ul&gt;" style="whiteSpace=wrap;html=1;fillColor=#fff2cc;rounded=0;strokeColor=#d6b656;fontColor=#4C0099;align=left;" parent="1" vertex="1">
          <mxGeometry x="610" y="235" width="180" height="85" as="geometry" />
        </mxCell>
        <mxCell id="jhGRHMNOVWTFbntyYFQe-20" style="edgeStyle=orthogonalEdgeStyle;rounded=0;orthogonalLoop=1;jettySize=auto;html=1;exitX=0;exitY=0.5;exitDx=0;exitDy=0;" parent="1" source="jhGRHMNOVWTFbntyYFQe-17" edge="1">
          <mxGeometry relative="1" as="geometry">
            <mxPoint x="510" y="740" as="targetPoint" />
            <Array as="points">
              <mxPoint x="910" y="530" />
              <mxPoint x="510" y="530" />
            </Array>
          </mxGeometry>
        </mxCell>
        <mxCell id="jhGRHMNOVWTFbntyYFQe-17" value="Создание IRefInst:&lt;br&gt;&lt;ul&gt;&lt;li&gt;автоматически&lt;/li&gt;&lt;li&gt;в обработчике Routine&lt;/li&gt;&lt;/ul&gt;" style="whiteSpace=wrap;html=1;fillColor=#fff2cc;rounded=0;strokeColor=#d6b656;fontColor=#4C0099;align=left;" parent="1" vertex="1">
          <mxGeometry x="910" y="500" width="200" height="70" as="geometry" />
        </mxCell>
        <mxCell id="jhGRHMNOVWTFbntyYFQe-21" value="RefMeta" style="text;html=1;strokeColor=#d6b656;fillColor=#000000;align=center;verticalAlign=middle;whiteSpace=wrap;rounded=0;fontColor=#66FF66;" parent="1" vertex="1">
          <mxGeometry x="940" y="440" width="60" height="30" as="geometry" />
        </mxCell>
        <mxCell id="jhGRHMNOVWTFbntyYFQe-25" value="" style="group" parent="1" vertex="1" connectable="0">
          <mxGeometry x="790" y="230" width="65" height="39" as="geometry" />
        </mxCell>
        <mxCell id="jhGRHMNOVWTFbntyYFQe-22" value="RefMeta" style="text;html=1;strokeColor=#d6b656;fillColor=#000000;align=center;verticalAlign=middle;whiteSpace=wrap;rounded=0;fontColor=#66FF66;" parent="jhGRHMNOVWTFbntyYFQe-25" vertex="1">
          <mxGeometry x="2.5" y="4.5" width="60" height="30" as="geometry" />
        </mxCell>
        <mxCell id="jhGRHMNOVWTFbntyYFQe-24" value="" style="endArrow=none;html=1;rounded=0;strokeColor=#FF0000;strokeWidth=4;" parent="jhGRHMNOVWTFbntyYFQe-25" edge="1">
          <mxGeometry width="50" height="50" relative="1" as="geometry">
            <mxPoint y="39" as="sourcePoint" />
            <mxPoint x="65" as="targetPoint" />
          </mxGeometry>
        </mxCell>
      </root>
    </mxGraphModel>
  </diagram>
</mxfile>
